# xmcd
#
# Track frame offsets: 
#        150
#        10593
#        23669
#        33540
#        44481
#        57484
#        67207
#        76053
#        87898
#        98736
#        109512
#        120641
#        136207
#        150996
#        160298
#        170492
#        182696
#        196880
#        208563
#        218976
#        229567
#        240736
#        252232
#        265187
#
# Disc length: 3806 seconds
#
# Revision: 0
# Processed by: cddbd v1.5.1PL2 Copyright (c) Steve Scherf et al.
# Submitted via: ExactAudioCopy v0.95a5
#
DISCID=3b0edc18
DTITLE=Elvis  - From Engineer Abbedd - Happy 71
DYEAR=1900
DGENRE=
TTITLE0=Heartbreak Hotel
TTITLE1=Love Me
TTITLE2=Don't Be Cruel
TTITLE3=Hound Dog
TTITLE4=Love Me Tender
TTITLE5=All Shook Up
TTITLE6=(Let Me Be Your) Teddy Bear
TTITLE7=Jailhouse Rock
TTITLE8=Wear My Ring Around Your Neck
TTITLE9=A Big Hunk O'Love
TTITLE10=Stuck On You
TTITLE11=It's Now Or Never
TTITLE12=Are You Lonesome Tonight
TTITLE13=Surrender
TTITLE14=(Marries The Name) His Latest Flame
TTITLE15=Little Sister
TTITLE16=Can't Help Falling In Love
TTITLE17=Good Luck Charm
TTITLE18=She's Not You
TTITLE19=Retun To Sender (Girls, Girls, Girls)
TTITLE20=(You're The) Devil In disguise
TTITLE21=Crying In The Chapel
TTITLE22=In The Ghetto
TTITLE23=Suspicious Minds
EXTD=
EXTT0=
EXTT1=
EXTT2=
EXTT3=
EXTT4=
EXTT5=
EXTT6=
EXTT7=
EXTT8=
EXTT9=
EXTT10=
EXTT11=
EXTT12=
EXTT13=
EXTT14=
EXTT15=
EXTT16=
EXTT17=
EXTT18=
EXTT19=
EXTT20=
EXTT21=
EXTT22=
EXTT23=
PLAYORDER=
